<?xml version="1.0" encoding="UTF-8" standalone="no"?>
<!-- Created with Inkscape (http://www.inkscape.org/) -->

<svg
   xmlns:osb="http://www.openswatchbook.org/uri/2009/osb"
   xmlns:dc="http://purl.org/dc/elements/1.1/"
   xmlns:cc="http://creativecommons.org/ns#"
   xmlns:rdf="http://www.w3.org/1999/02/22-rdf-syntax-ns#"
   xmlns:svg="http://www.w3.org/2000/svg"
   xmlns="http://www.w3.org/2000/svg"
   xmlns:sodipodi="http://sodipodi.sourceforge.net/DTD/sodipodi-0.dtd"
   xmlns:inkscape="http://www.inkscape.org/namespaces/inkscape"
   width="262.39276mm"
   height="187.75012mm"
   viewBox="0 0 929.73809 665.25633"
   id="svg2"
   version="1.1"
   inkscape:version="0.91 r13725"
   sodipodi:docname="REV.svg">
  <sodipodi:namedview
     id="base"
     pagecolor="#ffffff"
     bordercolor="#666666"
     borderopacity="1.0"
     inkscape:pageopacity="0.0"
     inkscape:pageshadow="2"
     inkscape:zoom="0.82647895"
     inkscape:cx="419.8075"
     inkscape:cy="294.15706"
     inkscape:document-units="px"
     inkscape:current-layer="layer1"
     showgrid="false"
     inkscape:window-width="1920"
     inkscape:window-height="1123"
     inkscape:window-x="0"
     inkscape:window-y="25"
     inkscape:window-maximized="1"
     fit-margin-top="0"
     fit-margin-left="0"
     fit-margin-right="0"
     fit-margin-bottom="0" />
  <defs
     id="defs4">
    <marker
       inkscape:stockid="Arrow1Lend"
       orient="auto"
       refY="0"
       refX="0"
       id="marker4620"
       style="overflow:visible"
       inkscape:isstock="true">
      <path
         id="path4622"
         d="M 0,0 5,-5 -12.5,0 5,5 0,0 Z"
         style="fill:#ff0000;fill-opacity:1;fill-rule:evenodd;stroke:#ff0000;stroke-width:1pt;stroke-opacity:1"
         transform="matrix(-0.8,0,0,-0.8,-10,0)"
         inkscape:connector-curvature="0" />
    </marker>
    <marker
       inkscape:isstock="true"
       style="overflow:visible"
       id="marker7071"
       refX="0"
       refY="0"
       orient="auto"
       inkscape:stockid="Arrow1Lend"
       inkscape:collect="always">
      <path
         inkscape:connector-curvature="0"
         transform="matrix(-0.8,0,0,-0.8,-10,0)"
         style="fill:#000000;fill-opacity:1;fill-rule:evenodd;stroke:#000000;stroke-width:1pt;stroke-opacity:1"
         d="M 0,0 5,-5 -12.5,0 5,5 0,0 Z"
         id="path7073" />
    </marker>
    <marker
       inkscape:isstock="true"
       style="overflow:visible"
       id="marker7031"
       refX="0"
       refY="0"
       orient="auto"
       inkscape:stockid="Arrow1Lstart">
      <path
         inkscape:connector-curvature="0"
         transform="matrix(0.8,0,0,0.8,10,0)"
         style="fill:#000000;fill-opacity:1;fill-rule:evenodd;stroke:#000000;stroke-width:1pt;stroke-opacity:1"
         d="M 0,0 5,-5 -12.5,0 5,5 0,0 Z"
         id="path7033" />
    </marker>
    <marker
       inkscape:stockid="Arrow1Lend"
       orient="auto"
       refY="0"
       refX="0"
       id="marker6993"
       style="overflow:visible"
       inkscape:isstock="true"
       inkscape:collect="always">
      <path
         inkscape:connector-curvature="0"
         id="path6995"
         d="M 0,0 5,-5 -12.5,0 5,5 0,0 Z"
         style="fill:#000000;fill-opacity:1;fill-rule:evenodd;stroke:#000000;stroke-width:1pt;stroke-opacity:1"
         transform="matrix(-0.8,0,0,-0.8,-10,0)" />
    </marker>
    <marker
       inkscape:isstock="true"
       style="overflow:visible"
       id="marker5441"
       refX="0"
       refY="0"
       orient="auto"
       inkscape:stockid="Arrow1Lend"
       inkscape:collect="always">
      <path
         inkscape:connector-curvature="0"
         transform="matrix(-0.8,0,0,-0.8,-10,0)"
         style="fill:#000000;fill-opacity:1;fill-rule:evenodd;stroke:#000000;stroke-width:1pt;stroke-opacity:1"
         d="M 0,0 5,-5 -12.5,0 5,5 0,0 Z"
         id="path5443" />
    </marker>
    <marker
       inkscape:stockid="Arrow1Lend"
       orient="auto"
       refY="0"
       refX="0"
       id="marker5377"
       style="overflow:visible"
       inkscape:isstock="true"
       inkscape:collect="always">
      <path
         inkscape:connector-curvature="0"
         id="path5379"
         d="M 0,0 5,-5 -12.5,0 5,5 0,0 Z"
         style="fill:#000000;fill-opacity:1;fill-rule:evenodd;stroke:#000000;stroke-width:1pt;stroke-opacity:1"
         transform="matrix(-0.8,0,0,-0.8,-10,0)" />
    </marker>
    <marker
       inkscape:stockid="Arrow1Lstart"
       orient="auto"
       refY="0"
       refX="0"
       id="marker5351"
       style="overflow:visible"
       inkscape:isstock="true"
       inkscape:collect="always">
      <path
         inkscape:connector-curvature="0"
         id="path5353"
         d="M 0,0 5,-5 -12.5,0 5,5 0,0 Z"
         style="fill:#000000;fill-opacity:1;fill-rule:evenodd;stroke:#000000;stroke-width:1pt;stroke-opacity:1"
         transform="matrix(0.8,0,0,0.8,10,0)" />
    </marker>
    <marker
       inkscape:stockid="Arrow1Lend"
       orient="auto"
       refY="0"
       refX="0"
       id="Arrow1Lend"
       style="overflow:visible"
       inkscape:isstock="true">
      <path
         inkscape:connector-curvature="0"
         id="path4580"
         d="M 0,0 5,-5 -12.5,0 5,5 0,0 Z"
         style="fill:#000000;fill-opacity:1;fill-rule:evenodd;stroke:#000000;stroke-width:1pt;stroke-opacity:1"
         transform="matrix(-0.8,0,0,-0.8,-10,0)" />
    </marker>
    <marker
       inkscape:isstock="true"
       style="overflow:visible"
       id="marker4545"
       refX="0"
       refY="0"
       orient="auto"
       inkscape:stockid="Arrow1Lstart">
      <path
         inkscape:connector-curvature="0"
         transform="matrix(0.8,0,0,0.8,10,0)"
         style="fill:#000000;fill-opacity:1;fill-rule:evenodd;stroke:#000000;stroke-width:1pt;stroke-opacity:1"
         d="M 0,0 5,-5 -12.5,0 5,5 0,0 Z"
         id="path4547" />
    </marker>
    <marker
       inkscape:stockid="Arrow1Lstart"
       orient="auto"
       refY="0"
       refX="0"
       id="Arrow1Lstart"
       style="overflow:visible"
       inkscape:isstock="true"
       inkscape:collect="always">
      <path
         inkscape:connector-curvature="0"
         id="path4439"
         d="M 0,0 5,-5 -12.5,0 5,5 0,0 Z"
         style="fill:#ff0000;fill-opacity:1;fill-rule:evenodd;stroke:#ff0000;stroke-width:1pt;stroke-opacity:1"
         transform="matrix(0.8,0,0,0.8,10,0)" />
    </marker>
    <linearGradient
       id="linearGradient4324"
       osb:paint="solid">
      <stop
         style="stop-color:#000000;stop-opacity:1;"
         offset="0"
         id="stop4326" />
    </linearGradient>
    <marker
       inkscape:stockid="Arrow1Lstart"
       orient="auto"
       refY="0"
       refX="0"
       id="Arrow1Lstart-6"
       style="overflow:visible"
       inkscape:isstock="true"
       inkscape:collect="always">
      <path
         inkscape:connector-curvature="0"
         id="path4439-7"
         d="M 0,0 5,-5 -12.5,0 5,5 0,0 Z"
         style="fill:#ff0000;fill-opacity:1;fill-rule:evenodd;stroke:#ff0000;stroke-width:1pt;stroke-opacity:1"
         transform="matrix(0.8,0,0,0.8,10,0)" />
    </marker>
  </defs>
  <metadata
     id="metadata7">
    <rdf:RDF>
      <cc:Work
         rdf:about="">
        <dc:format>image/svg+xml</dc:format>
        <dc:type
           rdf:resource="http://purl.org/dc/dcmitype/StillImage" />
        <dc:title></dc:title>
      </cc:Work>
    </rdf:RDF>
  </metadata>
  <g
     transform="translate(169.12899,-164.97262)"
     inkscape:label="Calque 1"
     inkscape:groupmode="layer"
     id="layer1"
     style="display:inline">
    <path
       style="opacity:1;fill:#00adff;fill-opacity:1;fill-rule:nonzero;stroke:#000000;stroke-width:2.13049412;stroke-linejoin:round;stroke-miterlimit:4;stroke-dasharray:4.26098775, 2.13049388;stroke-dashoffset:0;stroke-opacity:1"
       d="m 301.14526,318.11934 0,248.87665 224.38651,0 0,-248.87665 -224.38651,0 z"
       id="rect3340"
       inkscape:connector-curvature="0" />
    <circle
       style="fill:#b3b3b3;fill-rule:evenodd;stroke:#002525;stroke-width:4;stroke-linecap:butt;stroke-linejoin:miter;stroke-miterlimit:4;stroke-dasharray:none;stroke-opacity:1"
       id="path4216-5-7"
       cx="415.23465"
       cy="439.37958"
       r="51.73325" />
    <circle
       style="fill:#b3b3b3;fill-rule:evenodd;stroke:#002525;stroke-width:4;stroke-linecap:butt;stroke-linejoin:miter;stroke-miterlimit:4;stroke-dasharray:none;stroke-opacity:1"
       id="path4216-5-6-6-0"
       cx="409.56671"
       cy="678.19904"
       r="51.73325" />
    <circle
       style="fill:#b3b3b3;fill-rule:evenodd;stroke:#002525;stroke-width:4;stroke-linecap:butt;stroke-linejoin:miter;stroke-miterlimit:4;stroke-dasharray:none;stroke-opacity:1"
       id="path4216-5-6-6-0-8"
       cx="621.21307"
       cy="440.28824"
       r="51.73325" />
    <circle
       style="fill:#b3b3b3;fill-rule:evenodd;stroke:#002525;stroke-width:4;stroke-linecap:butt;stroke-linejoin:miter;stroke-miterlimit:4;stroke-dasharray:none;stroke-opacity:1"
       id="path4216-5-6-6-0-7"
       cx="624.84283"
       cy="683.51746"
       r="51.73325" />
    <g
       transform="translate(177.53338,424.62805)"
       id="g4878">
      <g
         style="font-style:normal;font-variant:normal;font-weight:normal;font-stretch:normal;letter-spacing:normal;word-spacing:normal;text-anchor:start;fill:none;fill-opacity:1;fill-rule:evenodd;stroke:#000000;stroke-linecap:butt;stroke-linejoin:miter;stroke-miterlimit:10.43299961;stroke-dasharray:none;stroke-dashoffset:0;stroke-opacity:1"
         id="content"
         transform="matrix(1.0629921,0,0,-1.0629921,-186.02362,789.27165)"
         xml:space="preserve"
         stroke-miterlimit="10.433"
         font-style="normal"
         font-variant="normal"
         font-weight="normal"
         font-stretch="normal"
         font-size-adjust="none"
         letter-spacing="normal"
         word-spacing="normal"><path
           style="fill:#000000;stroke-width:0"
           inkscape:connector-curvature="0"
           d="m 464.92,411.73 -0.19,-0.31 -0.19,-0.29 -0.18,-0.27 -0.19,-0.26 -0.18,-0.25 -0.19,-0.23 -0.19,-0.23 -0.18,-0.2 -0.19,-0.2 -0.18,-0.18 -0.19,-0.17 -0.19,-0.16 -0.19,-0.15 -0.18,-0.14 -0.19,-0.13 -0.19,-0.12 -0.19,-0.11 -0.19,-0.1 -0.19,-0.09 -0.19,-0.09 -0.2,-0.07 -0.19,-0.07 -0.19,-0.06 -0.2,-0.06 -0.2,-0.05 -0.19,-0.04 -0.2,-0.04 -0.2,-0.03 -0.4,-0.05 -0.41,-0.04 c -0.6,-0.04 -1.05,-0.04 -1.05,-0.99 0,-0.3 0.25,-0.55 0.65,-0.55 l 9.27,0 c 0.3,0 0.94,0 0.94,0.95 0,0.55 -0.44,0.59 -0.8,0.59 -1.14,0.1 -2.34,0.5 -2.34,1.75 0,0.6 0.3,1.14 0.7,1.84 l 3.79,6.38 12.5,0 -0.15,1.54 -11.41,0 9.82,16.44 1.59,-16.44 0.15,-1.54 c 0.1,-1.05 0.8,-7.82 0.8,-8.32 0,-1.49 -2.59,-1.65 -3.59,-1.65 -0.7,0 -1.2,0 -1.2,-0.99 0,-0.55 0.6,-0.55 0.7,-0.55 l 11.86,0 c 0.3,0 0.89,0 0.89,1 0,0.54 -0.49,0.54 -1.14,0.54 -3.09,0 -3.09,0.35 -3.24,1.8 l -3.04,31.13 c -0.1,1 -0.1,1.2 -0.94,1.2 -0.8,0 -1,-0.35 -1.3,-0.85 z"
           id="path4881" /><path
           style="fill:#000000;stroke-width:0"
           inkscape:connector-curvature="0"
           d="m 515.07,418.73 -0.01,0.29 -0.02,0.27 -0.04,0.27 -0.05,0.26 -0.07,0.26 -0.07,0.24 -0.1,0.24 -0.1,0.23 -0.12,0.22 -0.13,0.21 -0.14,0.2 -0.15,0.2 -0.16,0.18 -0.17,0.18 -0.19,0.17 -0.19,0.16 -0.2,0.15 -0.21,0.14 -0.21,0.13 -0.23,0.13 -0.23,0.11 -0.24,0.11 -0.25,0.09 -0.25,0.09 -0.26,0.07 -0.26,0.07 -0.27,0.05 -0.27,0.05 -0.28,0.04 -0.28,0.02 -0.28,0.02 -0.28,0 -0.07,-0.97 c 2.05,0 3.48,-1.12 3.48,-3.25 l 0,0 c 0,-1.84 -0.91,-4.56 -3.07,-5.79 -0.66,0.22 -1.32,0.46 -3.27,0.46 -1.23,0 -2.97,-0.07 -2.97,-1.33 0,-0.87 1.08,-1.01 2.86,-1.01 l 0.07,0.94 c -0.56,0 -1.39,0.04 -1.64,0.18 0.35,0.21 1.32,0.24 1.64,0.24 0.52,0 1.29,-0.03 1.78,-0.17 l 0,0 c -0.53,-0.11 -0.77,-0.25 -1.78,-0.25 l -0.07,-0.94 c 1.18,0 2.23,0.18 3.31,0.49 1.05,-0.73 1.61,-2.16 1.61,-3.7 0,-5.05 -3.45,-8.82 -7.71,-8.82 -2.69,0 -4.6,1.64 -4.6,4.39 0,0.36 0.03,0.7 0.1,1.02 l 2.3,9.27 c 0.84,3.32 3.91,8.27 7.96,8.27 l 0.07,0.97 c -4.78,0 -8.31,-5.44 -9.18,-8.96 l -5.47,-21.97 c -0.07,-0.24 0.28,-0.42 0.49,-0.42 0.31,0 0.59,0.04 0.66,0.25 l 2.34,9.31 c 0.73,-1.6 2.4,-3.1 5.23,-3.1 4.88,0 10.39,3.52 10.39,8.85 0,2.06 -0.94,4.15 -2.72,5.3 1.7,1.09 3.97,3.07 3.97,5.89 z"
           id="path4883" /><path
           style="fill:#000000;stroke-width:0"
           inkscape:connector-curvature="0"
           d="m 537.4,411.66 0.05,0 0.06,0 0.05,0 0.05,0 0.05,0 0.04,0 0.05,0 0.05,0 0.04,0 0.04,0 0.05,0.01 0.04,0 0.04,0 0.04,0.01 0.03,0.01 0.04,0 0.04,0.01 0.04,0.01 0.03,0.01 0.04,0 0.03,0.02 0.04,0.01 0.03,0.01 0.04,0.01 0.03,0.02 0.04,0.02 0.03,0.02 0.04,0.01 0.03,0.03 0.04,0.02 0.03,0.02 0.04,0.03 c 0.45,0.38 0.56,0.87 0.56,1.11 0,0.98 -0.91,0.98 -1.5,0.98 l -8.93,0 c -5.58,0 -9.76,-5.51 -9.76,-9.69 0,-3.25 2.41,-5.69 5.96,-5.69 l 0.03,0.98 c -1.88,0 -3.45,1.25 -3.45,3.73 0,1.05 0.63,8.3 6.63,8.3 1.78,0 3.59,-0.66 3.59,-3.32 0,-0.62 -0.32,-3.76 -2.02,-6.1 -1.47,-1.92 -3.42,-2.61 -4.75,-2.61 l 0,0 -0.03,-0.98 c 4.39,0 9.41,3.97 9.41,9.31 0,0.56 0,2.13 -1.04,3.7 z"
           id="path4885" /></g>    </g>
    <g
       id="g4943"
       transform="translate(-35.323962,-145.06059)">
      <g
         word-spacing="normal"
         letter-spacing="normal"
         font-size-adjust="none"
         font-stretch="normal"
         font-weight="normal"
         font-variant="normal"
         font-style="normal"
         stroke-miterlimit="10.433"
         xml:space="preserve"
         transform="matrix(1.0629921,0,0,-1.0629921,-186.02362,789.27165)"
         id="g4945"
         style="font-style:normal;font-variant:normal;font-weight:normal;font-stretch:normal;letter-spacing:normal;word-spacing:normal;text-anchor:start;fill:none;fill-opacity:1;fill-rule:evenodd;stroke:#000000;stroke-linecap:butt;stroke-linejoin:miter;stroke-miterlimit:10.43299961;stroke-dasharray:none;stroke-dashoffset:0;stroke-opacity:1"><path
           id="path4947"
           d="m 461.68,423.73 0,-15.39 -3.44,0 0,-2.34 12.55,0 0,2.34 -3.43,0 0,10.41 c 0,5.43 4.28,7.87 7.42,7.87 1.69,0 2.74,-1.04 2.74,-4.83 l 0,-13.45 -3.44,0 0,-2.34 12.56,0 0,2.34 -3.44,0 0,12.9 c 0,5.23 -2.69,7.17 -7.67,7.17 -4.78,0 -7.42,-2.83 -8.72,-5.37 l 0,5.37 -8.57,-0.39 0,-2.34 c 3.09,0 3.44,0 3.44,-1.95 z"
           inkscape:connector-curvature="0"
           style="fill:#000000;stroke-width:0" /><path
           id="path4949"
           d="m 509.07,418.73 -0.01,0.29 -0.02,0.27 -0.04,0.27 -0.05,0.26 -0.07,0.26 -0.07,0.24 -0.1,0.24 -0.1,0.23 -0.12,0.22 -0.13,0.21 -0.14,0.2 -0.15,0.2 -0.16,0.18 -0.17,0.18 -0.19,0.17 -0.19,0.16 -0.2,0.15 -0.21,0.14 -0.21,0.13 -0.23,0.13 -0.23,0.11 -0.24,0.11 -0.25,0.09 -0.25,0.09 -0.26,0.07 -0.26,0.07 -0.27,0.05 -0.27,0.05 -0.28,0.04 -0.28,0.02 -0.28,0.02 -0.28,0 -0.07,-0.97 c 2.05,0 3.48,-1.12 3.48,-3.25 l 0,0 c 0,-1.84 -0.91,-4.56 -3.07,-5.79 -0.66,0.22 -1.32,0.46 -3.27,0.46 -1.23,0 -2.97,-0.07 -2.97,-1.33 0,-0.87 1.08,-1.01 2.86,-1.01 l 0.07,0.94 c -0.56,0 -1.39,0.04 -1.64,0.18 0.35,0.21 1.32,0.24 1.64,0.24 0.52,0 1.29,-0.03 1.78,-0.17 l 0,0 c -0.53,-0.11 -0.77,-0.25 -1.78,-0.25 l -0.07,-0.94 c 1.18,0 2.23,0.18 3.31,0.49 1.05,-0.73 1.61,-2.16 1.61,-3.7 0,-5.05 -3.45,-8.82 -7.71,-8.82 -2.69,0 -4.6,1.64 -4.6,4.39 0,0.36 0.03,0.7 0.1,1.02 l 2.3,9.27 c 0.84,3.32 3.91,8.27 7.96,8.27 l 0.07,0.97 c -4.78,0 -8.31,-5.44 -9.18,-8.96 l -5.47,-21.97 c -0.07,-0.24 0.28,-0.42 0.49,-0.42 0.31,0 0.59,0.04 0.66,0.25 l 2.34,9.31 c 0.73,-1.6 2.4,-3.1 5.23,-3.1 4.88,0 10.39,3.52 10.39,8.85 0,2.06 -0.94,4.15 -2.72,5.3 1.7,1.09 3.97,3.07 3.97,5.89 z"
           inkscape:connector-curvature="0"
           style="fill:#000000;stroke-width:0" /><path
           id="path4951"
           d="m 532.4,411.66 0.05,0 0.06,0 0.05,0 0.05,0 0.05,0 0.04,0 0.05,0 0.05,0 0.04,0 0.04,0 0.05,0.01 0.04,0 0.04,0 0.04,0.01 0.03,0.01 0.04,0 0.04,0.01 0.04,0.01 0.03,0.01 0.04,0 0.03,0.02 0.04,0.01 0.03,0.01 0.04,0.01 0.03,0.02 0.04,0.02 0.03,0.02 0.04,0.01 0.03,0.03 0.04,0.02 0.03,0.02 0.04,0.03 c 0.45,0.38 0.56,0.87 0.56,1.11 0,0.98 -0.91,0.98 -1.5,0.98 l -8.93,0 c -5.58,0 -9.76,-5.51 -9.76,-9.69 0,-3.25 2.41,-5.69 5.96,-5.69 l 0.03,0.98 c -1.88,0 -3.45,1.25 -3.45,3.73 0,1.05 0.63,8.3 6.63,8.3 1.78,0 3.59,-0.66 3.59,-3.32 0,-0.62 -0.32,-3.76 -2.02,-6.1 -1.47,-1.92 -3.42,-2.61 -4.75,-2.61 l 0,0 -0.03,-0.98 c 4.39,0 9.41,3.97 9.41,9.31 0,0.56 0,2.13 -1.04,3.7 z"
           inkscape:connector-curvature="0"
           style="fill:#000000;stroke-width:0" /></g>    </g>
    <circle
       style="fill:#b3b3b3;fill-rule:evenodd;stroke:#002525;stroke-width:4;stroke-linecap:butt;stroke-linejoin:miter;stroke-miterlimit:4;stroke-dasharray:none;stroke-opacity:1"
       id="path4216-5"
       cx="301.92981"
       cy="328.3819"
       r="51.73325" />
    <circle
       style="fill:#b3b3b3;fill-rule:evenodd;stroke:#002525;stroke-width:4;stroke-linecap:butt;stroke-linejoin:miter;stroke-miterlimit:4;stroke-dasharray:none;stroke-opacity:1"
       id="path4216-5-3"
       cx="300.49673"
       cy="558.19122"
       r="51.73325" />
    <circle
       style="fill:#b3b3b3;fill-rule:evenodd;stroke:#000000;stroke-width:3;stroke-linecap:butt;stroke-linejoin:miter;stroke-miterlimit:4;stroke-dasharray:none;stroke-dashoffset:0;stroke-opacity:1"
       id="path4216-5-6-6-0-6"
       cx="528.96082"
       cy="563.03522"
       r="51.73325" />
    <circle
       style="fill:#b3b3b3;fill-rule:evenodd;stroke:#002525;stroke-width:4;stroke-linecap:butt;stroke-linejoin:miter;stroke-miterlimit:4;stroke-dasharray:none;stroke-opacity:1"
       id="path4216-5-6-6-0-2"
       cx="520.99457"
       cy="320.80472"
       r="51.73325" />
    <path
       sodipodi:nodetypes="cc"
       style="fill:#ff0000;fill-opacity:1;fill-rule:evenodd;stroke:#ff0000;stroke-width:2;stroke-linecap:butt;stroke-linejoin:miter;stroke-miterlimit:4;stroke-dasharray:none;stroke-opacity:1;marker-start:url(#Arrow1Lstart)"
       d="M 401.6785,448.17929 -100.46123,782.54754"
       id="path4433"
       inkscape:connector-curvature="0" />
    <path
       style="fill:none;fill-rule:evenodd;stroke:#000000;stroke-width:1.46314955;stroke-linecap:butt;stroke-linejoin:miter;stroke-miterlimit:4;stroke-dasharray:none;stroke-opacity:1;marker-start:url(#marker5351);marker-end:url(#marker5377)"
       d="m 712.16214,444.16181 0,234.51204"
       id="path4503"
       inkscape:connector-curvature="0" />
    <path
       style="fill:none;fill-rule:evenodd;stroke:#000000;stroke-width:1.14163375px;stroke-linecap:butt;stroke-linejoin:miter;stroke-opacity:1"
       d="m 487.19123,537.10555 43.01331,204.51371"
       id="path5423"
       inkscape:connector-curvature="0" />
    <path
       style="fill:none;fill-rule:evenodd;stroke:#000000;stroke-width:2.00199389;stroke-linecap:butt;stroke-linejoin:miter;stroke-miterlimit:4;stroke-dasharray:none;stroke-opacity:1;marker-end:url(#marker5441)"
       d="m 274.98832,283.04041 c -9.62153,-18.56998 -7.83693,-11.00033 -37.33426,-69.32189"
       id="path5425"
       inkscape:connector-curvature="0"
       sodipodi:nodetypes="cc" />
    <flowRoot
       xml:space="preserve"
       id="flowRoot7113"
       style="font-style:normal;font-variant:normal;font-weight:normal;font-stretch:normal;font-size:20px;line-height:125%;font-family:'Standard Symbols L';-inkscape-font-specification:'Standard Symbols L';letter-spacing:0px;word-spacing:0px;fill:#000000;fill-opacity:1;stroke:none;stroke-width:1px;stroke-linecap:butt;stroke-linejoin:miter;stroke-opacity:1"><flowRegion
         id="flowRegion7115"><rect
           id="rect7117"
           width="21.616505"
           height="34.226131"
           x="108.98322"
           y="812.32892" /></flowRegion><flowPara
         id="flowPara7119">yxy</flowPara></flowRoot>    <g
       transform="translate(1.0379745,7.1676137)"
       id="g4328">
      <path
         inkscape:connector-curvature="0"
         id="path6983"
         d="m -101.57749,776.05247 0,-136.37695"
         style="fill:none;fill-rule:evenodd;stroke:#000000;stroke-width:0.99807131px;stroke-linecap:butt;stroke-linejoin:miter;stroke-opacity:1;marker-end:url(#marker7071)" />
      <path
         inkscape:connector-curvature="0"
         id="path6985"
         d="m -102.0424,775.68637 128.381057,0"
         style="fill:none;fill-rule:evenodd;stroke:#000000;stroke-width:0.99490613px;stroke-linecap:butt;stroke-linejoin:miter;stroke-opacity:1;marker-end:url(#marker6993)" />
      <g
         id="g7450"
         transform="translate(-317.29219,457.92356)">
        <g
           id="g7452"
           transform="matrix(1.0629921,0,0,-1.0629921,-186.02362,789.27165)"
           xml:space="preserve"
           stroke-miterlimit="10.433"
           font-style="normal"
           font-variant="normal"
           font-weight="normal"
           font-stretch="normal"
           font-size-adjust="none"
           letter-spacing="normal"
           word-spacing="normal"
           style="font-style:normal;font-variant:normal;font-weight:normal;font-stretch:normal;letter-spacing:normal;word-spacing:normal;text-anchor:start;fill:none;fill-opacity:1;fill-rule:evenodd;stroke:#000000;stroke-linecap:butt;stroke-linejoin:miter;stroke-miterlimit:10.43299961;stroke-dasharray:none;stroke-dashoffset:0;stroke-opacity:1"><path
             d="m 472.64,421.04 0.03,0.13 0.03,0.15 0.05,0.17 0.04,0.18 0.06,0.19 0.06,0.21 0.06,0.21 0.07,0.23 0.08,0.23 0.09,0.24 0.1,0.25 0.1,0.24 0.11,0.25 0.12,0.25 0.13,0.25 0.14,0.25 0.15,0.24 0.15,0.24 0.17,0.23 0.18,0.22 0.18,0.22 0.2,0.2 0.21,0.19 0.22,0.18 0.23,0.16 0.25,0.14 0.12,0.07 0.13,0.06 0.13,0.05 0.14,0.05 0.14,0.05 0.14,0.04 0.14,0.03 0.15,0.03 0.15,0.02 0.16,0.02 0.16,0.01 0.16,0 c 0.25,0 1.45,0 2.49,-0.65 -1.4,-0.25 -2.39,-1.49 -2.39,-2.68 0,-0.8 0.54,-1.75 1.89,-1.75 1.1,0 2.69,0.9 2.69,2.89 0,2.59 -2.94,3.29 -4.63,3.29 -2.89,0 -4.64,-2.64 -5.23,-3.79 -1.25,3.29 -3.94,3.79 -5.38,3.79 -5.18,0 -8.02,-6.43 -8.02,-7.67 0,-0.5 0.5,-0.5 0.6,-0.5 0.39,0 0.54,0.1 0.64,0.54 1.7,5.29 4.98,6.53 6.68,6.53 0.95,0 2.69,-0.45 2.69,-3.33 0,-1.55 -0.85,-4.89 -2.69,-11.86 -0.8,-3.09 -2.54,-5.18 -4.73,-5.18 -0.3,0 -1.45,0 -2.49,0.65 1.24,0.25 2.34,1.29 2.34,2.69 0,1.34 -1.1,1.74 -1.85,1.74 -1.49,0 -2.73,-1.3 -2.73,-2.89 0,-2.29 2.48,-3.29 4.68,-3.29 3.28,0 5.08,3.49 5.23,3.79 0.6,-1.85 2.39,-3.79 5.38,-3.79 5.13,0 7.97,6.43 7.97,7.67 0,0.5 -0.45,0.5 -0.6,0.5 -0.45,0 -0.55,-0.2 -0.65,-0.55 -1.64,-5.33 -5.03,-6.52 -6.62,-6.52 -1.95,0 -2.74,1.59 -2.74,3.29 0,1.09 0.29,2.19 0.85,4.38 z"
             id="path7454"
             inkscape:connector-curvature="0"
             style="fill:#000000;stroke-width:0" /><path
             d="m 495.68,421.18 0,0.04 0,0.04 0,0.04 0,0.04 0,0.04 0,0.04 0,0.03 0,0.04 -0.01,0.03 0,0.03 0,0.04 0,0.03 -0.01,0.02 0,0.03 0,0.03 -0.01,0.03 0,0.02 0,0.02 -0.02,0.05 -0.01,0.04 -0.01,0.04 -0.02,0.03 -0.02,0.03 -0.02,0.03 -0.03,0.03 -0.02,0.02 -0.03,0.02 -0.04,0.02 -0.03,0.01 -0.04,0.01 -0.05,0.02 -0.05,0 -0.02,0.01 -0.03,0 -0.03,0.01 -0.02,0 -0.03,0 -0.03,0 -0.04,0 -0.03,0.01 -0.03,0 -0.04,0 -0.03,0 -0.04,0 -0.04,0 -0.04,0 -0.04,0 -0.04,0 -0.05,0 -0.04,0 c -2.24,-2.19 -5.41,-2.23 -6.84,-2.23 l 0,-1.25 c 0.84,0 3.14,0 5.06,0.97 l 0,-17.78 c 0,-1.15 0,-1.61 -3.49,-1.61 l -1.33,0 0,-1.25 12.45,0 0,1.25 -1.32,0 c -3.49,0 -3.49,0.46 -3.49,1.61 z"
             id="path7456"
             inkscape:connector-curvature="0"
             style="fill:#000000;stroke-width:0" /></g>      </g>
      <g
         id="g7676"
         transform="translate(-470.40911,306.96982)">
        <g
           word-spacing="normal"
           letter-spacing="normal"
           font-size-adjust="none"
           font-stretch="normal"
           font-weight="normal"
           font-variant="normal"
           font-style="normal"
           stroke-miterlimit="10.433"
           xml:space="preserve"
           transform="matrix(1.0629921,0,0,-1.0629921,-186.02362,789.27165)"
           id="g7678"
           style="font-style:normal;font-variant:normal;font-weight:normal;font-stretch:normal;letter-spacing:normal;word-spacing:normal;text-anchor:start;fill:none;fill-opacity:1;fill-rule:evenodd;stroke:#000000;stroke-linecap:butt;stroke-linejoin:miter;stroke-miterlimit:10.43299961;stroke-dasharray:none;stroke-dashoffset:0;stroke-opacity:1"><path
             id="path7680"
             d="m 472.64,421.04 0.03,0.13 0.03,0.15 0.05,0.17 0.04,0.18 0.06,0.19 0.06,0.21 0.06,0.21 0.07,0.23 0.08,0.23 0.09,0.24 0.1,0.25 0.1,0.24 0.11,0.25 0.12,0.25 0.13,0.25 0.14,0.25 0.15,0.24 0.15,0.24 0.17,0.23 0.18,0.22 0.18,0.22 0.2,0.2 0.21,0.19 0.22,0.18 0.23,0.16 0.25,0.14 0.12,0.07 0.13,0.06 0.13,0.05 0.14,0.05 0.14,0.05 0.14,0.04 0.14,0.03 0.15,0.03 0.15,0.02 0.16,0.02 0.16,0.01 0.16,0 c 0.25,0 1.45,0 2.49,-0.65 -1.4,-0.25 -2.39,-1.49 -2.39,-2.68 0,-0.8 0.54,-1.75 1.89,-1.75 1.1,0 2.69,0.9 2.69,2.89 0,2.59 -2.94,3.29 -4.63,3.29 -2.89,0 -4.64,-2.64 -5.23,-3.79 -1.25,3.29 -3.94,3.79 -5.38,3.79 -5.18,0 -8.02,-6.43 -8.02,-7.67 0,-0.5 0.5,-0.5 0.6,-0.5 0.39,0 0.54,0.1 0.64,0.54 1.7,5.29 4.98,6.53 6.68,6.53 0.95,0 2.69,-0.45 2.69,-3.33 0,-1.55 -0.85,-4.89 -2.69,-11.86 -0.8,-3.09 -2.54,-5.18 -4.73,-5.18 -0.3,0 -1.45,0 -2.49,0.65 1.24,0.25 2.34,1.29 2.34,2.69 0,1.34 -1.1,1.74 -1.85,1.74 -1.49,0 -2.73,-1.3 -2.73,-2.89 0,-2.29 2.48,-3.29 4.68,-3.29 3.28,0 5.08,3.49 5.23,3.79 0.6,-1.85 2.39,-3.79 5.38,-3.79 5.13,0 7.97,6.43 7.97,7.67 0,0.5 -0.45,0.5 -0.6,0.5 -0.45,0 -0.55,-0.2 -0.65,-0.55 -1.64,-5.33 -5.03,-6.52 -6.62,-6.52 -1.95,0 -2.74,1.59 -2.74,3.29 0,1.09 0.29,2.19 0.85,4.38 z"
             inkscape:connector-curvature="0"
             style="fill:#000000;stroke-width:0" /><path
             id="path7682"
             d="m 501.61,405.35 -1.19,0 c -0.1,-0.77 -0.45,-2.83 -0.9,-3.18 -0.28,-0.21 -2.97,-0.21 -3.45,-0.21 l -6.42,0 c 3.66,3.25 4.88,4.22 6.97,5.86 2.58,2.06 4.99,4.22 4.99,7.54 0,4.21 -3.7,6.79 -8.16,6.79 -4.33,0 -7.25,-3.03 -7.25,-6.24 0,-1.78 1.5,-1.95 1.84,-1.95 0.84,0 1.85,0.59 1.85,1.85 0,0.62 -0.24,1.85 -2.05,1.85 1.08,2.47 3.45,3.24 5.09,3.24 3.48,0 5.3,-2.72 5.3,-5.54 0,-3.04 -2.16,-5.45 -3.28,-6.7 l -8.4,-8.3 c -0.35,-0.31 -0.35,-0.38 -0.35,-1.36 l 14.36,0 z"
             inkscape:connector-curvature="0"
             style="fill:#000000;stroke-width:0" /></g>      </g>
    </g>
    <path
       sodipodi:nodetypes="cc"
       style="fill:#ff0000;fill-opacity:1;fill-rule:evenodd;stroke:#ff0000;stroke-width:2;stroke-linecap:butt;stroke-linejoin:miter;stroke-miterlimit:4;stroke-dasharray:none;stroke-opacity:1;marker-end:url(#marker4620)"
       d="M 409.29706,443.15231 491.2962,491.5703"
       id="path4612"
       inkscape:connector-curvature="0" />
    <g
       transform="translate(387.37925,314.34216)"
       id="g5649">
      <g
         style="font-style:normal;font-variant:normal;font-weight:normal;font-stretch:normal;letter-spacing:normal;word-spacing:normal;text-anchor:start;fill:none;fill-opacity:1;fill-rule:evenodd;stroke:#000000;stroke-linecap:butt;stroke-linejoin:miter;stroke-miterlimit:10.43299961;stroke-dasharray:none;stroke-dashoffset:0;stroke-opacity:1"
         word-spacing="normal"
         letter-spacing="normal"
         font-size-adjust="none"
         font-stretch="normal"
         font-weight="normal"
         font-variant="normal"
         font-style="normal"
         stroke-miterlimit="10.433"
         xml:space="preserve"
         transform="matrix(1.2407081,0,0,-1.2407081,-217.12392,767.06245)"
         id="g5651"><path
           style="fill:#000000;stroke-width:0"
           inkscape:connector-curvature="0"
           id="path5653"
           d="m 456.8,410.93 -0.02,-0.03 -0.02,-0.03 -0.02,-0.02 -0.02,-0.03 -0.02,-0.03 -0.03,-0.03 -0.02,-0.03 -0.01,-0.03 -0.02,-0.03 -0.01,-0.02 -0.01,-0.01 -0.01,-0.02 0,-0.01 -0.01,-0.02 -0.01,-0.02 0,-0.01 -0.01,-0.02 0,-0.02 -0.01,-0.01 0,-0.02 0,-0.02 0,-0.02 0,-0.02 c 0,-0.25 0.3,-0.64 0.59,-0.64 0.25,0 0.4,0.14 1.8,1.54 0.4,0.35 1.39,1.29 1.79,1.69 0.5,-3.93 1.95,-7.62 5.58,-7.62 1.99,0 3.74,1.15 4.78,1.9 0.7,0.49 3.04,2.43 3.04,2.93 0,0.15 -0.15,0.6 -0.59,0.6 -0.15,0 -0.2,-0.05 -0.65,-0.45 -3.19,-3.13 -5.03,-3.88 -6.48,-3.88 -2.24,0 -3.04,2.59 -3.04,6.47 0,0.3 0.1,2.59 0.25,2.84 0.1,0.15 0.1,0.25 1.1,1.25 4.03,4.03 11.1,12.45 11.1,20.17 0,0.85 0,3.89 -2.93,3.89 l 0.05,-1.1 c 1.69,0 1.69,-1.79 1.69,-2.59 0,-8.32 -8.37,-17.04 -10.76,-19.52 l 0,0 c 0.1,0.54 2.24,11.6 5.08,17.43 1.35,2.69 2.39,4.68 3.99,4.68 l -0.05,1.1 c -4.14,0 -7.82,-8.22 -8.32,-9.37 -2.39,-5.43 -3.94,-11.25 -3.94,-17.18 z" /></g>    </g>
    <path
       sodipodi:nodetypes="cc"
       style="display:inline;fill:none;fill-rule:evenodd;stroke:#000000;stroke-width:2;stroke-linecap:butt;stroke-linejoin:miter;stroke-miterlimit:4;stroke-dasharray:4, 2;stroke-dashoffset:0;stroke-opacity:1"
       d="M 77.901391,494.90599 301.24279,485.07224"
       id="path5431-3"
       inkscape:connector-curvature="0" />
    <path
       style="display:inline;opacity:1;fill:none;fill-opacity:1;fill-rule:nonzero;stroke:#000000;stroke-width:2.02374172;stroke-linejoin:round;stroke-miterlimit:4;stroke-dasharray:4.04748276, 2.02374138;stroke-dashoffset:0;stroke-opacity:1"
       d="m 388.01895,373.03086 0,233.25403 216.0236,0 0,-233.25403 -216.0236,0 z"
       id="rect3340-3"
       inkscape:connector-curvature="0" />
    <path
       sodipodi:nodetypes="cc"
       style="display:inline;fill:#ff0000;fill-opacity:1;fill-rule:evenodd;stroke:#ff0000;stroke-width:2;stroke-linecap:butt;stroke-linejoin:miter;stroke-miterlimit:4;stroke-dasharray:none;stroke-opacity:1;marker-start:url(#Arrow1Lstart-6)"
       d="M 484.61115,499.19352 -100.32427,782.2692"
       id="path4433-5"
       inkscape:connector-curvature="0" />
    <path
       sodipodi:nodetypes="cc"
       style="display:inline;fill:none;fill-rule:evenodd;stroke:#000000;stroke-width:0.64126146px;stroke-linecap:butt;stroke-linejoin:miter;stroke-opacity:1"
       d="M 473.32085,217.65399 393.0837,353.99744"
       id="path5433-3"
       inkscape:connector-curvature="0" />
    <g
       id="g8739"
       transform="translate(130.04594,177.9576)"
       style="fill:#ff0000">
      <g
         word-spacing="normal"
         letter-spacing="normal"
         font-size-adjust="none"
         font-stretch="normal"
         font-weight="normal"
         font-variant="normal"
         font-style="normal"
         stroke-miterlimit="10.433"
         xml:space="preserve"
         transform="matrix(1.2407081,0,0,-1.2407081,-217.12392,767.06245)"
         id="g8741"
         style="font-style:normal;font-variant:normal;font-weight:normal;font-stretch:normal;letter-spacing:normal;word-spacing:normal;text-anchor:start;fill:#ff0000;fill-opacity:1;fill-rule:evenodd;stroke:#000000;stroke-linecap:butt;stroke-linejoin:miter;stroke-miterlimit:10.43299961;stroke-dasharray:none;stroke-dashoffset:0;stroke-opacity:1"><path
           id="path8743"
           d="m 479.4,422.72 0.06,0.12 0.06,0.12 0.03,0.05 0.03,0.05 0.04,0.05 0.04,0.05 0.04,0.05 0.04,0.04 0.05,0.04 0.05,0.04 0.06,0.04 0.07,0.03 0.07,0.04 0.08,0.03 0.08,0.03 0.1,0.02 0.1,0.03 0.11,0.02 0.12,0.02 0.07,0.01 0.06,0.01 0.07,0.01 0.07,0.01 0.08,0.01 0.07,0.01 0.08,0 0.09,0.01 0.08,0.01 0.09,0 0.09,0.01 0.1,0 0.1,0.01 0.1,0 0.1,0.01 0.11,0 0.11,0 0.12,0 0.12,0 0.12,0.01 0.13,0 0.13,0 0,2.2 -7.67,0 0,-2.2 c 0.05,0 1.98,0 1.98,-0.54 0,-0.05 0,-0.09 -0.23,-0.54 l -5.33,-10.93 -5.83,12.01 2.29,0 0,2.2 -10.68,0 0,-2.2 2.83,0 8.61,-17.71 c -1.57,-3.68 -3.28,-7.17 -6.73,-7.17 -0.26,0 -0.53,0 -0.85,0.13 0.76,0.4 1.3,1.21 1.3,2.33 0,1.71 -1.25,2.69 -2.69,2.69 -1.43,0 -2.69,-0.98 -2.69,-2.69 0,-2.42 2.24,-4.25 4.89,-4.25 3.49,0 6.28,2.59 7.67,5.51 z"
           inkscape:connector-curvature="0"
           style="fill:#ff0000;stroke-width:0" /></g>    </g>
    <g
       transform="translate(-220.73587,331.1038)"
       id="g8998"
       style="fill:#ff0000">
      <g
         style="font-style:normal;font-variant:normal;font-weight:normal;font-stretch:normal;letter-spacing:normal;word-spacing:normal;text-anchor:start;fill:#ff0000;fill-opacity:1;fill-rule:evenodd;stroke:#000000;stroke-linecap:butt;stroke-linejoin:miter;stroke-miterlimit:10.43299961;stroke-dasharray:none;stroke-dashoffset:0;stroke-opacity:1"
         id="g9000"
         transform="matrix(1.2407081,0,0,-1.2407081,-217.12392,767.06245)"
         xml:space="preserve"
         stroke-miterlimit="10.433"
         font-style="normal"
         font-variant="normal"
         font-weight="normal"
         font-stretch="normal"
         font-size-adjust="none"
         letter-spacing="normal"
         word-spacing="normal"><path
           style="fill:#ff0000;stroke-width:0"
           inkscape:connector-curvature="0"
           d="m 472.05,416.98 5.47,5.88 c 0.49,0.53 0.81,0.85 4.39,0.85 l 0,2.2 -8.74,0 0,-2.2 c 0.99,0 1.21,-0.18 1.53,-0.5 l -4.17,-4.52 -4.44,5.02 1.61,0 0,2.2 -10.31,0 0,-2.2 3.14,0 7.13,-8.12 -6.05,-6.54 c -0.81,-0.85 -2.38,-0.85 -4.45,-0.85 l 0,-2.2 8.75,0 0,2.2 c -0.68,0 -1.44,0.18 -1.44,0.49 0,0.18 0.27,0.45 0.32,0.49 l 4.39,4.71 4.98,-5.69 -1.57,0 0,-2.2 10.31,0 0,2.2 -3.14,0 z"
           id="path9002" /></g>    </g>
    <g
       id="g9248"
       transform="translate(-137.74602,402.11573)"
       style="fill:#ff0000">
      <g
         word-spacing="normal"
         letter-spacing="normal"
         font-size-adjust="none"
         font-stretch="normal"
         font-weight="normal"
         font-variant="normal"
         font-style="normal"
         stroke-miterlimit="10.433"
         xml:space="preserve"
         transform="matrix(1.2407081,0,0,-1.2407081,-217.12392,767.06245)"
         id="g9250"
         style="font-style:normal;font-variant:normal;font-weight:normal;font-stretch:normal;letter-spacing:normal;word-spacing:normal;text-anchor:start;fill:#ff0000;fill-opacity:1;fill-rule:evenodd;stroke:#000000;stroke-linecap:butt;stroke-linejoin:miter;stroke-miterlimit:10.43299961;stroke-dasharray:none;stroke-dashoffset:0;stroke-opacity:1"><path
           id="path9252"
           d="m 465.86,415.77 0.01,0.32 0.01,0.32 0.02,0.33 0.02,0.34 0.04,0.34 0.04,0.35 0.06,0.35 0.06,0.36 0.07,0.36 0.09,0.35 0.09,0.36 0.11,0.35 0.11,0.35 0.13,0.34 0.14,0.34 0.15,0.32 0.17,0.32 0.18,0.31 0.19,0.3 0.2,0.28 0.22,0.27 0.24,0.25 0.24,0.24 0.27,0.22 0.28,0.2 0.29,0.18 0.32,0.15 0.32,0.14 0.18,0.06 0.17,0.05 0.18,0.04 0.18,0.04 0.19,0.03 0.19,0.03 0.2,0.01 0.2,0.01 c -0.49,-0.49 -0.72,-1.26 -0.72,-1.97 0,-1.97 1.57,-2.87 2.83,-2.87 1.43,0 2.87,0.99 2.87,2.87 0,2.29 -2.33,3.77 -4.98,3.77 -3.13,0 -5.06,-2.29 -6.05,-4.89 l -0.05,0 0,4.89 -7.48,-0.36 0,-2.2 c 2.69,0 3.05,0 3.05,-1.75 l 0,-13.67 -3.05,0 0,-2.2 11.83,0 0,2.2 -3.81,0 z"
           inkscape:connector-curvature="0"
           style="fill:#ff0000;stroke-width:0" /></g>    </g>
    <g
       transform="translate(-354.20407,253.24735)"
       id="g9489">
      <g
         style="font-style:normal;font-variant:normal;font-weight:normal;font-stretch:normal;letter-spacing:normal;word-spacing:normal;text-anchor:start;fill:none;fill-opacity:1;fill-rule:evenodd;stroke:#000000;stroke-linecap:butt;stroke-linejoin:miter;stroke-miterlimit:10.43299961;stroke-dasharray:none;stroke-dashoffset:0;stroke-opacity:1"
         id="g9491"
         transform="matrix(1.2407081,0,0,-1.2407081,-217.12392,767.06245)"
         xml:space="preserve"
         stroke-miterlimit="10.433"
         font-style="normal"
         font-variant="normal"
         font-weight="normal"
         font-stretch="normal"
         font-size-adjust="none"
         letter-spacing="normal"
         word-spacing="normal"><path
           style="fill:#000000;stroke-width:0"
           inkscape:connector-curvature="0"
           d="m 484.96,431.33 0.17,0.26 0.17,0.25 0.17,0.24 0.17,0.23 0.17,0.22 0.16,0.21 0.17,0.2 0.16,0.18 0.17,0.18 0.16,0.17 0.16,0.16 0.17,0.15 0.16,0.14 0.16,0.13 0.17,0.12 0.16,0.12 0.17,0.11 0.16,0.1 0.17,0.09 0.17,0.08 0.17,0.08 0.17,0.07 0.17,0.07 0.17,0.06 0.18,0.05 0.18,0.05 0.18,0.04 0.18,0.04 0.18,0.03 0.19,0.03 0.19,0.02 0.19,0.02 c 0.54,0.04 0.94,0.09 0.94,0.81 0,0.35 -0.27,0.58 -0.58,0.58 l -8.02,0 c -0.32,0 -0.81,-0.09 -0.81,-0.81 0,-0.54 0.49,-0.58 0.63,-0.58 0.45,-0.05 2.06,-0.13 2.06,-1.43 0,-0.36 -0.14,-0.68 -0.32,-1.03 -0.17,-0.36 -0.26,-0.54 -0.44,-0.86 l -14.04,-21.74 -3.4,23.72 c 0,0.4 0.31,1.34 3.09,1.34 0.54,0 1.07,0 1.07,0.81 0,0.49 -0.44,0.58 -0.71,0.58 -0.81,0 -1.75,-0.09 -2.6,-0.09 l -5.29,0 c -0.36,0 -2.2,0.09 -2.56,0.09 -0.18,0 -0.81,0 -0.81,-0.81 0,-0.58 0.5,-0.58 1.04,-0.58 2.51,0 2.55,-0.4 2.73,-1.52 l 3.95,-27.53 c 0.13,-0.85 0.18,-1.16 0.94,-1.16 0.72,0 0.99,0.35 1.3,0.89 z"
           id="path9493" /><path
           style="fill:#000000;stroke-width:0"
           inkscape:connector-curvature="0"
           d="m 500.35,437.96 0,0.15 0,0.15 0,0.14 -0.01,0.07 0,0.08 -0.01,0.07 -0.01,0.07 -0.01,0.07 -0.01,0.07 -0.01,0.06 -0.02,0.07 -0.02,0.06 -0.02,0.06 -0.02,0.06 -0.03,0.06 -0.03,0.05 -0.03,0.05 -0.03,0.05 -0.04,0.04 -0.05,0.04 -0.05,0.04 -0.02,0.02 -0.03,0.02 -0.02,0.01 -0.03,0.02 -0.03,0.01 -0.03,0.01 -0.04,0.01 -0.03,0.01 -0.03,0.01 -0.04,0.01 -0.04,0.01 -0.03,0 -0.04,0.01 -0.04,0 -0.05,0 -0.04,0 c -0.98,0 -0.98,-0.85 -0.98,-1.66 l 0,-41.51 c 0,-0.76 0,-1.66 0.94,-1.66 0.98,0 0.98,0.85 0.98,1.66 z"
           id="path9495" /><path
           style="fill:#000000;stroke-width:0"
           inkscape:connector-curvature="0"
           d="m 518.91,407.84 -0.26,0.3 4.15,3.95 c 0.3,0.3 0.36,0.3 0.9,0.36 0.41,0.03 0.77,0.03 1.16,0.03 l 0.96,0 0,1.79 -6.55,0 0,-1.79 c 0.39,0 0.51,-0.06 0.69,-0.12 l -2.84,-2.72 -2.93,2.84 0.63,0 0,1.79 -7.32,0 0,-1.79 2.39,0 5.05,-4.93 -4.61,-4.37 c -0.33,-0.3 -0.42,-0.39 -2.06,-0.39 l -0.95,0 0,-1.79 6.51,0 0,1.76 -0.75,0.12 3.02,2.87 c 0.09,0.09 0.27,0.24 0.36,0.3 l 3.38,-3.26 -0.66,0 0,-1.79 7.32,0 0,1.79 -2.39,0 z"
           id="path9497" /></g>    </g>
    <g
       id="g9741"
       transform="translate(320.19948,43.512228)">
      <g
         word-spacing="normal"
         letter-spacing="normal"
         font-size-adjust="none"
         font-stretch="normal"
         font-weight="normal"
         font-variant="normal"
         font-style="normal"
         stroke-miterlimit="10.433"
         xml:space="preserve"
         transform="matrix(1.2407081,0,0,-1.2407081,-217.12392,767.06245)"
         id="g9743"
         style="font-style:normal;font-variant:normal;font-weight:normal;font-stretch:normal;letter-spacing:normal;word-spacing:normal;text-anchor:start;fill:none;fill-opacity:1;fill-rule:evenodd;stroke:#000000;stroke-linecap:butt;stroke-linejoin:miter;stroke-miterlimit:10.43299961;stroke-dasharray:none;stroke-dashoffset:0;stroke-opacity:1"><path
           id="path9745"
           d="m 484.96,431.33 0.17,0.26 0.17,0.25 0.17,0.24 0.17,0.23 0.17,0.22 0.16,0.21 0.17,0.2 0.16,0.18 0.17,0.18 0.16,0.17 0.16,0.16 0.17,0.15 0.16,0.14 0.16,0.13 0.17,0.12 0.16,0.12 0.17,0.11 0.16,0.1 0.17,0.09 0.17,0.08 0.17,0.08 0.17,0.07 0.17,0.07 0.17,0.06 0.18,0.05 0.18,0.05 0.18,0.04 0.18,0.04 0.18,0.03 0.19,0.03 0.19,0.02 0.19,0.02 c 0.54,0.04 0.94,0.09 0.94,0.81 0,0.35 -0.27,0.58 -0.58,0.58 l -8.02,0 c -0.32,0 -0.81,-0.09 -0.81,-0.81 0,-0.54 0.49,-0.58 0.63,-0.58 0.45,-0.05 2.06,-0.13 2.06,-1.43 0,-0.36 -0.14,-0.68 -0.32,-1.03 -0.17,-0.36 -0.26,-0.54 -0.44,-0.86 l -14.04,-21.74 -3.4,23.72 c 0,0.4 0.31,1.34 3.09,1.34 0.54,0 1.07,0 1.07,0.81 0,0.49 -0.44,0.58 -0.71,0.58 -0.81,0 -1.75,-0.09 -2.6,-0.09 l -5.29,0 c -0.36,0 -2.2,0.09 -2.56,0.09 -0.18,0 -0.81,0 -0.81,-0.81 0,-0.58 0.5,-0.58 1.04,-0.58 2.51,0 2.55,-0.4 2.73,-1.52 l 3.95,-27.53 c 0.13,-0.85 0.18,-1.16 0.94,-1.16 0.72,0 0.99,0.35 1.3,0.89 z"
           inkscape:connector-curvature="0"
           style="fill:#000000;stroke-width:0" /><path
           id="path9747"
           d="m 500.35,437.96 0,0.15 0,0.15 0,0.14 -0.01,0.07 0,0.08 -0.01,0.07 -0.01,0.07 -0.01,0.07 -0.01,0.07 -0.01,0.06 -0.02,0.07 -0.02,0.06 -0.02,0.06 -0.02,0.06 -0.03,0.06 -0.03,0.05 -0.03,0.05 -0.03,0.05 -0.04,0.04 -0.05,0.04 -0.05,0.04 -0.02,0.02 -0.03,0.02 -0.02,0.01 -0.03,0.02 -0.03,0.01 -0.03,0.01 -0.04,0.01 -0.03,0.01 -0.03,0.01 -0.04,0.01 -0.04,0.01 -0.03,0 -0.04,0.01 -0.04,0 -0.05,0 -0.04,0 c -0.98,0 -0.98,-0.85 -0.98,-1.66 l 0,-41.51 c 0,-0.76 0,-1.66 0.94,-1.66 0.98,0 0.98,0.85 0.98,1.66 z"
           inkscape:connector-curvature="0"
           style="fill:#000000;stroke-width:0" /><path
           id="path9749"
           d="m 513.71,407.07 0.01,0.27 0.01,0.28 0.02,0.27 0.03,0.27 0.04,0.27 0.05,0.26 0.05,0.26 0.07,0.26 0.07,0.25 0.08,0.25 0.09,0.24 0.09,0.23 0.11,0.23 0.11,0.22 0.12,0.22 0.12,0.2 0.14,0.2 0.14,0.19 0.15,0.18 0.16,0.17 0.16,0.17 0.17,0.15 0.18,0.14 0.19,0.13 0.19,0.11 0.2,0.11 0.21,0.09 0.21,0.08 0.22,0.07 0.23,0.05 0.23,0.04 0.24,0.03 c -0.08,-0.12 -0.35,-0.57 -0.35,-1.23 0,-1.37 1.1,-2.09 2.09,-2.09 0.99,0 2.09,0.72 2.09,2.09 0,1.76 -1.79,2.75 -3.61,2.75 -2.55,0 -4.04,-1.88 -4.73,-3.32 l -0.03,0 0,3.32 -5.29,-0.24 0,-1.79 c 1.85,0 2.07,0 2.07,-1.17 l 0,-8.49 -2.07,0 0,-1.79 8.34,0 0,1.79 -2.6,0 z"
           inkscape:connector-curvature="0"
           style="fill:#000000;stroke-width:0" /></g>    </g>
    <g
       id="g10279"
       transform="translate(103.41656,-56.649725)"
       style="fill:#008fff;fill-opacity:1">
      <g
         word-spacing="normal"
         letter-spacing="normal"
         font-size-adjust="none"
         font-stretch="normal"
         font-weight="normal"
         font-variant="normal"
         font-style="normal"
         stroke-miterlimit="10.433"
         xml:space="preserve"
         transform="matrix(1.2407081,0,0,-1.2407081,-217.12392,767.06245)"
         id="g10281"
         style="font-style:normal;font-variant:normal;font-weight:normal;font-stretch:normal;letter-spacing:normal;word-spacing:normal;text-anchor:start;fill:#008fff;fill-opacity:1;fill-rule:evenodd;stroke:#000000;stroke-linecap:butt;stroke-linejoin:miter;stroke-miterlimit:10.43299961;stroke-dasharray:none;stroke-dashoffset:0;stroke-opacity:1"><path
           id="path10283"
           d="m 484.96,431.33 0.17,0.26 0.17,0.25 0.17,0.24 0.17,0.23 0.17,0.22 0.16,0.21 0.17,0.2 0.16,0.18 0.17,0.18 0.16,0.17 0.16,0.16 0.17,0.15 0.16,0.14 0.16,0.13 0.17,0.12 0.16,0.12 0.17,0.11 0.16,0.1 0.17,0.09 0.17,0.08 0.17,0.08 0.17,0.07 0.17,0.07 0.17,0.06 0.18,0.05 0.18,0.05 0.18,0.04 0.18,0.04 0.18,0.03 0.19,0.03 0.19,0.02 0.19,0.02 c 0.54,0.04 0.94,0.09 0.94,0.81 0,0.35 -0.27,0.58 -0.58,0.58 l -8.02,0 c -0.32,0 -0.81,-0.09 -0.81,-0.81 0,-0.54 0.49,-0.58 0.63,-0.58 0.45,-0.05 2.06,-0.13 2.06,-1.43 0,-0.36 -0.14,-0.68 -0.32,-1.03 -0.17,-0.36 -0.26,-0.54 -0.44,-0.86 l -14.04,-21.74 -3.4,23.72 c 0,0.4 0.31,1.34 3.09,1.34 0.54,0 1.07,0 1.07,0.81 0,0.49 -0.44,0.58 -0.71,0.58 -0.81,0 -1.75,-0.09 -2.6,-0.09 l -5.29,0 c -0.36,0 -2.2,0.09 -2.56,0.09 -0.18,0 -0.81,0 -0.81,-0.81 0,-0.58 0.5,-0.58 1.04,-0.58 2.51,0 2.55,-0.4 2.73,-1.52 l 3.95,-27.53 c 0.13,-0.85 0.18,-1.16 0.94,-1.16 0.72,0 0.99,0.35 1.3,0.89 z"
           inkscape:connector-curvature="0"
           style="fill:#008fff;fill-opacity:1;stroke-width:0" /><path
           id="path10285"
           d="m 502.02,418.01 0,0.2 -0.02,0.21 -0.03,0.2 -0.04,0.2 -0.05,0.19 -0.07,0.19 -0.07,0.19 -0.09,0.19 -0.1,0.17 -0.11,0.18 -0.12,0.17 -0.12,0.16 -0.14,0.16 -0.15,0.16 -0.16,0.15 -0.17,0.14 -0.18,0.13 -0.19,0.13 -0.2,0.12 -0.21,0.12 -0.21,0.1 -0.23,0.1 -0.23,0.09 -0.25,0.09 -0.25,0.07 -0.26,0.06 -0.27,0.06 -0.27,0.05 -0.29,0.03 -0.29,0.03 -0.3,0.01 -0.31,0.01 0.04,-0.98 c 1.79,0 3.22,-0.81 3.22,-2.79 l 0,0 c 0,-2.12 -1.28,-4 -2.69,-4.81 -0.86,0.3 -1.76,0.39 -2.66,0.39 -0.75,0 -3.01,0.06 -3.01,-1.13 0,-1.11 1.91,-1.02 2.66,-1.02 l 0,0.98 c -0.31,0 -1.08,0 -1.29,0.09 0.48,0.07 0.96,0.09 1.43,0.09 0.36,0 0.75,-0.02 1.2,-0.05 l 0,0 c -0.3,-0.06 -1.05,-0.13 -1.34,-0.13 l 0,-0.98 c 0.71,0 2.3,0.12 2.92,0.48 0.84,-0.6 1.53,-1.47 1.53,-3.26 0,-4.06 -2.75,-7.26 -6.97,-7.26 -2.18,0 -4.03,1.4 -4.03,3.7 0,0.27 0,0.51 0.06,0.75 l 2.03,8.1 c 0.72,2.9 3.59,6.85 6.94,6.85 l -0.04,0.98 c -0.89,0 -1.85,-0.27 -2.66,-0.69 -2.75,-1.4 -4.72,-4.36 -5.37,-7.02 l -4.7,-18.77 c -0.09,-0.3 0.3,-0.39 0.6,-0.39 0.27,0 0.45,0.03 0.51,0.3 0.03,0.03 1.64,6.48 1.97,7.83 0.9,-1.82 2.78,-2.63 4.72,-2.63 4.13,0 9.27,2.84 9.27,7.47 0,1.62 -0.6,3.35 -2.42,4.63 2.51,1.59 3.46,3.32 3.46,5.21 z"
           inkscape:connector-curvature="0"
           style="fill:#008fff;fill-opacity:1;stroke-width:0" /><path
           id="path10287"
           d="m 514.35,437.96 0,0.15 0,0.15 0,0.14 -0.01,0.07 0,0.08 -0.01,0.07 -0.01,0.07 -0.01,0.07 -0.01,0.07 -0.01,0.06 -0.02,0.07 -0.02,0.06 -0.02,0.06 -0.02,0.06 -0.03,0.06 -0.03,0.05 -0.03,0.05 -0.03,0.05 -0.04,0.04 -0.05,0.04 -0.05,0.04 -0.02,0.02 -0.03,0.02 -0.02,0.01 -0.03,0.02 -0.03,0.01 -0.03,0.01 -0.04,0.01 -0.03,0.01 -0.03,0.01 -0.04,0.01 -0.04,0.01 -0.03,0 -0.04,0.01 -0.04,0 -0.05,0 -0.04,0 c -0.98,0 -0.98,-0.85 -0.98,-1.66 l 0,-41.51 c 0,-0.76 0,-1.66 0.94,-1.66 0.98,0 0.98,0.85 0.98,1.66 z"
           inkscape:connector-curvature="0"
           style="fill:#008fff;fill-opacity:1;stroke-width:0" /><path
           id="path10289"
           d="m 532.91,407.84 -0.26,0.3 4.15,3.95 c 0.3,0.3 0.36,0.3 0.9,0.36 0.41,0.03 0.77,0.03 1.16,0.03 l 0.96,0 0,1.79 -6.55,0 0,-1.79 c 0.39,0 0.51,-0.06 0.69,-0.12 l -2.84,-2.72 -2.93,2.84 0.63,0 0,1.79 -7.32,0 0,-1.79 2.39,0 5.05,-4.93 -4.61,-4.37 c -0.33,-0.3 -0.42,-0.39 -2.06,-0.39 l -0.95,0 0,-1.79 6.51,0 0,1.76 -0.75,0.12 3.02,2.87 c 0.09,0.09 0.27,0.24 0.36,0.3 l 3.38,-3.26 -0.66,0 0,-1.79 7.32,0 0,1.79 -2.39,0 z"
           inkscape:connector-curvature="0"
           style="fill:#008fff;fill-opacity:1;stroke-width:0" /></g>    </g>
    <path
       sodipodi:nodetypes="cc"
       style="display:inline;fill:none;fill-rule:evenodd;stroke:#000000;stroke-width:2;stroke-linecap:butt;stroke-linejoin:miter;stroke-miterlimit:4;stroke-dasharray:4, 2;stroke-dashoffset:0;stroke-opacity:1"
       d="M 687.85455,315.97119 584.50886,367.845"
       id="path5431-3-5"
       inkscape:connector-curvature="0" />
  </g>
</svg>
